<?xml version="1.0" encoding="UTF-8" standalone="no"?>
<!-- Created with Inkscape (http://www.inkscape.org/) -->

<svg
   xmlns:dc="http://purl.org/dc/elements/1.1/"
   xmlns:cc="http://creativecommons.org/ns#"
   xmlns:rdf="http://www.w3.org/1999/02/22-rdf-syntax-ns#"
   xmlns:svg="http://www.w3.org/2000/svg"
   xmlns="http://www.w3.org/2000/svg"
   xmlns:sodipodi="http://sodipodi.sourceforge.net/DTD/sodipodi-0.dtd"
   xmlns:inkscape="http://www.inkscape.org/namespaces/inkscape"
   id="svg4166"
   version="1.1"
   inkscape:version="0.91 r13725"
   width="162"
   height="162"
   viewBox="0 0 162 162"
   sodipodi:docname="linkedin-white.svg">
  <metadata
     id="metadata4172">
    <rdf:RDF>
      <cc:Work
         rdf:about="">
        <dc:format>image/svg+xml</dc:format>
        <dc:type
           rdf:resource="http://purl.org/dc/dcmitype/StillImage" />
        <dc:title></dc:title>
      </cc:Work>
    </rdf:RDF>
  </metadata>
  <defs
     id="defs4170">
    <clipPath
       clipPathUnits="userSpaceOnUse"
       id="clipPath4720">
      <rect
         style="opacity:1;fill:none;fill-opacity:0;stroke:#000000;stroke-width:4;stroke-linecap:round;stroke-linejoin:miter;stroke-miterlimit:4;stroke-dasharray:none;stroke-dashoffset:0;stroke-opacity:1"
         id="rect4722"
         width="175.72882"
         height="198.38136"
         x="-9.6101694"
         y="-15.788136" />
    </clipPath>
    <clipPath
       clipPathUnits="userSpaceOnUse"
       id="clipPath4740">
      <rect
         style="opacity:1;fill:none;fill-opacity:0;stroke:#000000;stroke-width:4;stroke-linecap:round;stroke-linejoin:miter;stroke-miterlimit:4;stroke-dasharray:none;stroke-dashoffset:0;stroke-opacity:1"
         id="rect4742"
         width="167"
         height="169.5"
         x="-3.25"
         y="-3.7499995" />
    </clipPath>
  </defs>
  <sodipodi:namedview
     pagecolor="#ffffff"
     bordercolor="#666666"
     borderopacity="1"
     objecttolerance="10"
     gridtolerance="10"
     guidetolerance="10"
     inkscape:pageopacity="0"
     inkscape:pageshadow="2"
     inkscape:window-width="1920"
     inkscape:window-height="1027"
     id="namedview4168"
     showgrid="false"
     fit-margin-top="0"
     fit-margin-left="0"
     fit-margin-right="0"
     fit-margin-bottom="0"
     inkscape:zoom="4"
     inkscape:cx="43.050315"
     inkscape:cy="78.044716"
     inkscape:window-x="-8"
     inkscape:window-y="-8"
     inkscape:window-maximized="1"
     inkscape:current-layer="svg4166" />
  <path
     style="fill:#ffffff"
     d="m 176.18581,161.28253 c -3.11483,-1.0172 -5.5612,-3.18425 -6.93876,-6.14653 -0.65278,-1.40371 -0.78361,-2.11295 -0.78137,-4.236 0.004,-3.4031 0.97518,-5.62512 3.46923,-7.93417 2.23004,-2.06463 4.27512,-2.86583 7.31509,-2.86583 4.31845,0 7.85021,2.24551 9.81777,6.24218 0.87297,1.77326 0.97957,2.26287 0.95833,4.40151 -0.0605,6.09053 -4.33201,10.60502 -10.2705,10.85473 -1.40646,0.0591 -2.79861,-0.0641 -3.56979,-0.31589 z m 7.18843,-1.60851 c 1.99227,-0.87268 3.87055,-2.74915 4.82598,-4.82132 0.51096,-1.10821 0.64649,-1.96956 0.6455,-4.1027 -0.001,-2.33947 -0.10746,-2.90191 -0.79663,-4.21205 -0.97168,-1.84716 -3.11412,-3.87411 -4.99639,-4.72703 -2.11831,-0.95988 -5.65652,-0.90069 -7.8527,0.13137 -1.98283,0.9318 -3.67779,2.5748 -4.75344,4.60771 -0.69709,1.31745 -0.79375,1.84685 -0.79429,4.35 -6e-4,2.39622 0.1088,3.05516 0.68655,4.13852 2.65135,4.9716 7.95913,6.85908 13.03542,4.6355 z M 175.5,150.9 l 0,-5.7 3.12698,0 c 2.90668,0 3.19046,0.0534 4.02795,0.75811 1.82419,1.53496 1.38497,4.22328 -0.84534,5.17394 l -1.21513,0.51795 1.65801,2.475 c 1.61794,2.41519 1.63959,2.475 0.89603,2.475 -0.62719,0 -1.05298,-0.45109 -2.40701,-2.55 -1.548,-2.3996 -1.70685,-2.55 -2.69326,-2.55 l -1.04823,0 0,2.55 c 0,2.52 -0.009,2.55 -0.75,2.55 l -0.75,0 0,-5.7 z m 5.93325,-1.06701 c 0.4956,-0.34713 0.66675,-0.76797 0.66675,-1.63945 0,-1.4903 -0.52925,-1.79354 -3.13028,-1.79354 l -1.96972,0 0,1.95 0,1.95 1.88325,0 c 1.21894,0 2.11844,-0.16474 2.55,-0.46701 z M 8.4760872,160.06318 C 6.7853535,159.53331 4.4416998,158.00449 3.2640807,156.66326 2.7402065,156.0666 1.8927263,154.69453 1.3807912,153.61421 L 0.45,151.65 0.45,80.384442 0.45,9.1188822 1.5817029,6.8290371 C 2.8695116,4.2233334 4.5311211,2.570972 7.1636562,1.2781519 L 8.85,0.45 l 71.7,0 71.7,0 1.68634,0.8281519 c 2.63254,1.2928201 4.29415,2.9451815 5.58196,5.5508852 l 1.1317,2.2898451 0,71.2811178 0,71.28112 -1.1317,2.28984 c -1.28781,2.60571 -2.94942,4.25807 -5.58195,5.55089 L 152.25,160.35 81,160.40621 c -58.588401,0.0462 -71.4763827,-0.0147 -72.5239128,-0.34303 z M 48,98.7 l 0,-38.4 -12,0 -12,0 0,38.4 0,38.4 12,0 12,0 0,-38.4 z m 38.779734,16.125 c 0.12393,-24.761865 0.09742,-24.412092 2.169129,-28.622415 1.354908,-2.753568 3.563379,-4.830825 6.199317,-5.830977 C 96.788748,79.749126 97.566072,79.65 100.8068,79.65 c 3.65167,0 3.81365,0.02799 5.78791,1.000152 3.33386,1.641651 5.14503,4.518081 6.07612,9.649848 0.31977,1.762422 0.4105,7.077021 0.4187,24.525 l 0.0105,22.275 12.0178,0 12.0178,0 -0.12,-26.325 c -0.116,-25.446312 -0.14161,-26.438634 -0.76734,-29.729367 -1.4191,-7.463124 -3.42698,-11.8014 -7.24826,-15.660762 -4.22672,-4.268844 -9.04974,-6.236253 -16.93917,-6.90984 -8.11304,-0.692679 -13.930773,0.752181 -19.51083,4.845597 -1.924824,1.412013 -4.647879,4.28214 -5.827572,6.14232 L 85.8,70.917468 l 0,-5.308734 0,-5.308734 -11.55,0 -11.55,0 0,38.4 0,38.4 11.984124,0 11.984127,0 0.111483,-22.275 z M 40.172712,49.231632 C 50.061843,46.153788 53.105415,33.609255 45.74808,26.251919 42.977805,23.481644 39.918648,22.214668 36,22.214668 c -7.822565,0 -13.8,5.959074 -13.8,13.757609 0,6.176967 3.757717,11.400363 9.528585,13.245165 2.3376,0.74727 6.068589,0.75354 8.444127,0.01419 z"
     id="path4724"
     inkscape:connector-curvature="0"
     clip-path="url(#clipPath4740)"
     transform="translate(0.45932617,0.7184864)" />
  <g
     inkscape:groupmode="layer"
     id="layer1"
     inkscape:label="Layer 1" />
</svg>
