<?xml version="1.0" encoding="UTF-8" standalone="no"?>
<!-- Created with Inkscape (http://www.inkscape.org/) -->

<svg
   xmlns:dc="http://purl.org/dc/elements/1.1/"
   xmlns:cc="http://creativecommons.org/ns#"
   xmlns:rdf="http://www.w3.org/1999/02/22-rdf-syntax-ns#"
   xmlns:svg="http://www.w3.org/2000/svg"
   xmlns="http://www.w3.org/2000/svg"
   xmlns:sodipodi="http://sodipodi.sourceforge.net/DTD/sodipodi-0.dtd"
   xmlns:inkscape="http://www.inkscape.org/namespaces/inkscape"
   id="svg4136"
   version="1.1"
   inkscape:version="0.91 r13725"
   width="640"
   height="640"
   viewBox="0 0 640 640"
   sodipodi:docname="twitter-grey.svg">
  <metadata
     id="metadata4142">
    <rdf:RDF>
      <cc:Work
         rdf:about="">
        <dc:format>image/svg+xml</dc:format>
        <dc:type
           rdf:resource="http://purl.org/dc/dcmitype/StillImage" />
        <dc:title></dc:title>
      </cc:Work>
    </rdf:RDF>
  </metadata>
  <defs
     id="defs4140" />
  <sodipodi:namedview
     pagecolor="#ffffff"
     bordercolor="#666666"
     borderopacity="1"
     objecttolerance="10"
     gridtolerance="10"
     guidetolerance="10"
     inkscape:pageopacity="0"
     inkscape:pageshadow="2"
     inkscape:window-width="1920"
     inkscape:window-height="1027"
     id="namedview4138"
     showgrid="false"
     inkscape:zoom="0.94796503"
     inkscape:cx="322.43008"
     inkscape:cy="377.64254"
     inkscape:window-x="-8"
     inkscape:window-y="-8"
     inkscape:window-maximized="1"
     inkscape:current-layer="g4146" />
  <g
     id="g4146"
     transform="translate(-265.54779,192.44755)">
    <path
       style="fill:#343434;fill-opacity:1"
       d="m 295.48599,445.71389 c -11.58641,-3.13869 -22.70666,-13.04976 -26.93097,-24.00261 -2.31827,-6.01086 -2.38223,-13.92895 -2.38223,-294.92669 l 0,-288.75 2.70111,-5.84459 c 3.82571,-8.27796 12.01939,-16.65185 20.24701,-20.69232 l 7.05188,-3.46309 289.375,0 289.375,0 6.5172,2.94695 c 7.72966,3.49519 16.93252,12.87441 20.75871,21.15652 l 2.72409,5.89653 0,289.375 0,289.375 -3.46309,7.05189 c -4.04046,8.22761 -12.41436,16.42128 -20.69232,20.247 l -5.84459,2.70111 -286.875,0.23491 c -224.01324,0.18343 -288.12112,-0.10266 -292.5618,-1.30561 z m 257.5618,-161.34608 c 72.38096,-12.15506 132.82259,-56.77488 166.05015,-122.58322 16.29106,-32.265 25.06711,-66.844448 25.34001,-99.844889 l 0.11938,-14.44167 5.80771,-4.6188 c 11.94611,-9.5006 29.70127,-28.273 34.3995,-36.37033 0.51424,-0.88627 -2.48637,-0.25661 -7.15969,1.50241 -8.0809,3.04166 -23.42613,7.15841 -32.61075,8.74867 l -4.92862,0.85336 6.24044,-4.93278 c 9.73698,-7.69665 18.70403,-18.5354296 23.70067,-28.64785 2.51568,-5.09133 4.30184,-9.5291 3.96925,-9.86168 -0.3326,-0.3326 -4.47882,1.33956 -9.21385,3.7159 -11.80021,5.92211 -20.1034,9.08793 -31.76072,12.10966 l -9.90338,2.5670704 -7.80847,-6.3181204 c -16.83972,-13.62565 -34.94345,-19.53309 -56.89948,-18.56689 -22.33018,0.98266 -38.6361,8.16789 -54.70522,24.1059404 -6.15648,6.10625 -10.38543,11.7714196 -13.99653,18.7499996 -7.58804,14.66411 -9.46531,23.27934 -8.94488,41.04987 l 0.43345,14.79987 -8.12701,-0.81329 C 514.64186,59.725961 458.7158,32.312001 422.12588,-8.4091686 c -8.15362,-9.0742304 -8.47164,-9.2843304 -10.41677,-6.8822004 -3.74921,4.63007 -8.82745,22.73075 -9.50792,33.88967 -1.39843,22.93221 6.80475,43.69806 24.09057,60.98388 l 10.32858,10.32858 -5.2238,-0.73442 c -7.12274,-1.0014 -17.05261,-3.79998 -23.90491,-6.73723 l -5.69384,-2.44068 0,6.56796 c 0,15.589369 8.26539,34.715099 20.90004,48.361669 9.63455,10.40622 20.12911,17.48554 32.73845,22.08443 l 9.39966,3.42824 -4.95657,1.07443 c -2.72612,0.59094 -10.44095,0.87343 -17.14408,0.62775 -7.2697,-0.26645 -12.1875,0.0379 -12.1875,0.75425 0,0.66052 2.09143,5.46166 4.64761,10.66919 3.46349,7.0559 7.2056,12.0239 14.6875,19.49902 14.06726,14.05451 30.12378,22.05962 48.36644,24.11352 l 7.92345,0.89208 -7.95035,5.4345 c -13.13797,8.98052 -34.7201,18.64537 -50.58129,22.65116 -16.18193,4.0868 -37.79593,6.30166 -52.71836,5.40222 l -10,-0.60275 4.13689,2.62862 c 10.44284,6.63545 33.56986,17.14025 48.36311,21.96757 15.86434,5.17684 29.36209,8.30247 45.67798,10.57753 12.04525,1.67956 56.05485,0.57093 69.94702,-1.76201 z"
       id="path4148"
       inkscape:connector-curvature="0" />
    <path
       style="opacity:1;fill:#ff0000;fill-opacity:0;stroke:none;stroke-width:4;stroke-linecap:round;stroke-linejoin:miter;stroke-miterlimit:4;stroke-dasharray:none;stroke-dashoffset:0;stroke-opacity:1"
       d="m 99.848032,638.53168 -70.150267,-0.52745 -6.031424,-2.96181 C 16.455289,631.50135 9.511252,625.006 5.3284302,617.88941 L 2.2705925,612.68684 1.5891557,563.10695 C 1.2143655,535.83801 0.85833975,404.88697 0.79798731,272.10464 L 0.68825563,30.682201 4.1166521,24.234796 C 8.4297371,16.123653 16.46729,8.0367948 23.95145,4.2783209 l 5.776595,-2.9009509 290.459735,0 290.45974,0 6.26879,3.3412386 c 7.16839,3.8207075 15.62682,12.5310234 19.40072,19.9784614 l 2.58042,5.092227 0,289.632793 0,289.63279 -3.26547,6.46886 c -3.87303,7.67243 -12.08545,16.12471 -19.41469,19.98172 l -5.27445,2.77567 -220.47227,0.389 c -121.25975,0.21394 -252.03989,0.15164 -290.622538,-0.13845 z M 267.71304,478.75009 c 46.4688,-1.72503 97.61836,-23.18867 133.88303,-56.1807 23.53426,-21.41044 40.26557,-43.66464 53.75234,-71.49558 15.32008,-31.61407 22.49463,-60.28301 23.94828,-95.69536 l 0.64142,-15.62564 7.07757,-5.79038 c 8.06141,-6.5953 21.58853,-20.42109 28.36475,-28.99105 5.74183,-7.26176 4.77833,-7.59482 -9.08131,-3.13927 -8.82081,2.83568 -26.39166,7.26241 -29.11852,7.33601 -0.46526,0.0126 1.95108,-2.30487 5.36964,-5.14983 6.95694,-5.78963 14.28487,-14.08487 18.704,-21.173 4.06313,-6.51711 7.99811,-15.65965 7.00434,-16.27383 -0.45271,-0.2798 -6.43619,2.10469 -13.29663,5.29883 -6.86043,3.19416 -17.94833,7.38128 -24.63977,9.30471 l -12.16626,3.49717 -8.72877,-6.66005 c -9.78626,-7.46688 -20.7811,-13.10733 -31.00197,-15.90424 -9.48677,-2.59605 -33.61427,-2.6443 -43.25054,-0.0865 -16.07524,4.2669 -33.5433,15.93567 -43.78991,29.25192 -5.80365,7.54226 -13.55574,23.58779 -15.17972,31.41943 -0.63754,3.07455 -1.15917,12.36981 -1.15917,20.65612 l 0,15.06601 -11.86752,-1.43667 c -37.9462,-4.59371 -73.61851,-17.60147 -105.30477,-38.39895 -13.96933,-9.16885 -23.94537,-17.50587 -37.39998,-31.25534 -6.39898,-6.53922 -12.1796,-11.88948 -12.84581,-11.88948 -1.89067,0 -6.42755,10.5727 -8.91991,20.78689 -2.77475,11.37146 -3.0108,27.214 -0.55663,37.36044 3.53116,14.59922 9.98969,25.62045 23.17895,39.55399 8.19852,8.66117 8.29304,8.82183 4.82315,8.19809 -7.43787,-1.33703 -16.4161,-3.86088 -22.43577,-6.30689 -3.44144,-1.39839 -6.72054,-2.54252 -7.28688,-2.54252 -1.69292,0 0.0178,16.73484 2.48023,24.2625 7.76578,23.73994 25.79599,42.88381 49.27128,52.31458 4.19922,1.68696 7.64081,3.42323 7.64796,3.85837 0.0132,0.80129 -7.9547,1.16077 -19.50249,0.8799 -3.48114,-0.0847 -7.6648,0.22719 -9.29702,0.69304 l -2.96768,0.84698 4.99655,9.99826 c 4.15911,8.32255 6.60131,11.60187 14.57147,19.56624 14.56845,14.55786 28.95226,22.08441 47.46779,24.83825 l 8.13048,1.20926 -6.13341,4.14311 c -3.37338,2.27871 -10.76729,6.49589 -16.43094,9.37152 -26.90587,13.66102 -43.67864,17.74347 -77.25844,18.80451 l -20.04293,0.6333 7.38424,4.36778 c 20.64716,12.21279 52.70003,23.86723 79.64429,28.95871 8.32558,1.57322 28.23863,2.77689 39.03097,2.35926 4.35143,-0.16838 14.38194,-0.54634 22.29002,-0.8399 z"
       id="path4182"
       inkscape:connector-curvature="0"
       transform="translate(265.54779,-192.44755)" />
  </g>
</svg>
